<?xml version="1.0" standalone="no"?>
<!DOCTYPE svg PUBLIC "-//W3C//DTD SVG 20010904//EN"
 "http://www.w3.org/TR/2001/REC-SVG-20010904/DTD/svg10.dtd">
<svg version="1.0" xmlns="http://www.w3.org/2000/svg"
 width="128.000000pt" height="128.000000pt" viewBox="0 0 500.000000 500.000000"
 preserveAspectRatio="xMidYMid meet">

<g transform="translate(0.000000,500.000000) scale(0.100000,-0.100000)"
fill="#000000" stroke="none">
<path d="M2305 3816 c-418 -69 -756 -302 -963 -662 -278 -482 -212 -1110 160
-1531 438 -497 1183 -596 1728 -230 201 134 351 300 454 501 142 277 180 593
110 914 -17 77 -31 89 -58 47 -25 -37 -126 -84 -254 -116 -149 -38 -184 -38
-211 -1 -18 25 -30 30 -103 41 -132 19 -355 25 -420 12 -59 -13 -302 -130
-401 -194 l-59 -38 41 -44 c36 -39 41 -51 41 -91 0 -66 17 -115 59 -170 52
-69 102 -96 167 -90 60 5 94 21 153 70 53 44 93 48 117 10 35 -53 12 -117 -45
-128 -14 -3 -51 -10 -83 -16 -32 -6 -59 -17 -62 -26 -9 -22 30 -54 67 -54 45
-1 115 -35 128 -63 20 -43 -39 -117 -94 -117 -23 0 -79 48 -104 90 -24 40 -58
58 -88 46 -22 -8 -19 -69 6 -100 26 -33 27 -67 5 -101 -28 -42 -59 -51 -98
-28 -54 31 -62 59 -38 134 11 35 20 91 20 125 0 57 -3 64 -41 108 -57 65 -120
100 -179 99 -70 -1 -84 -13 -120 -104 -63 -156 -161 -251 -241 -234 -40 9
-110 104 -178 240 -109 218 -139 479 -82 700 63 241 261 504 503 665 219 147
379 200 602 200 207 0 406 -47 551 -130 65 -37 68 -38 35 -9 -126 109 -347
214 -550 260 -112 26 -364 34 -475 15z"/>
<path d="M3057 3406 c-41 -15 -121 -77 -137 -105 -8 -17 -20 -18 -118 -13
-124 5 -176 -6 -282 -62 l-65 -34 -46 49 c-55 60 -84 63 -175 20 -74 -35 -83
-47 -45 -54 43 -9 95 -60 122 -119 33 -74 32 -200 -1 -276 -27 -63 -91 -122
-132 -122 -36 0 -35 -14 1 -51 53 -52 96 -41 266 70 171 112 213 129 335 141
125 13 237 6 383 -22 103 -19 111 -19 152 -4 33 13 46 25 54 48 18 52 14 66
-12 36 -85 -100 -227 -44 -268 106 -15 53 -14 167 2 213 18 57 56 108 94 129
19 10 35 22 35 25 0 10 -77 39 -103 39 -12 -1 -39 -7 -60 -14z m-179 -449 c4
-36 -15 -62 -34 -46 -15 12 -19 61 -7 73 15 15 38 0 41 -27z m-188 -36 c0 -26
-17 -44 -34 -38 -19 8 -22 73 -3 80 14 6 37 -20 37 -42z"/>
<path d="M3207 3222 c-74 -82 -26 -255 64 -227 54 18 82 112 54 183 -25 62
-83 83 -118 44z"/>
<path d="M2118 3053 c-28 -32 -38 -61 -38 -106 0 -94 77 -149 130 -92 34 36
36 139 4 182 -26 34 -73 42 -96 16z"/>
</g>
</svg>
